<svg fill="none" height="1207" viewBox="0 0 1428 1207" width="1428" xmlns="http://www.w3.org/2000/svg" xmlns:xlink="http://www.w3.org/1999/xlink"><linearGradient id="a"><stop offset="0" stop-color="#ff0061"/><stop offset=".53" stop-color="#ff9724"/><stop offset="1" stop-color="#ffbd24"/></linearGradient><linearGradient id="b" gradientUnits="userSpaceOnUse" x1="689.126" x2="601.191" xlink:href="#a" y1="1299.06" y2="1035.2"/><linearGradient id="c" gradientUnits="userSpaceOnUse" x1="724.34" x2="541.757" xlink:href="#a" y1="1266.1" y2="1152.27"/><linearGradient id="d" gradientUnits="userSpaceOnUse" x1="752.605" x2="570.022" xlink:href="#a" y1="1269.26" y2="1155.43"/><linearGradient id="e" gradientUnits="userSpaceOnUse" x1="813.242" x2="664.516" xlink:href="#a" y1="1350.23" y2="1123.85"/><linearGradient id="f" gradientUnits="userSpaceOnUse" x1="748.744" x2="743.182" xlink:href="#a" y1="1268.82" y2="997.321"/><linearGradient id="g"><stop offset="0" stop-color="#396e8b"/><stop offset=".56" stop-color="#53809a"/><stop offset="1" stop-color="#fff"/></linearGradient><linearGradient id="h" gradientUnits="userSpaceOnUse" x1="878.014" x2="731.131" xlink:href="#g" y1="1337.9" y2="1078.83"/><linearGradient id="i"><stop offset="0" stop-color="#091a2c"/><stop offset=".46" stop-color="#1f3e6a"/><stop offset="1" stop-color="#4a758e"/></linearGradient><linearGradient id="j" gradientUnits="userSpaceOnUse" x1="1113.4" x2="793.483" xlink:href="#i" y1="1538.99" y2="610.696"/><linearGradient id="k" gradientUnits="userSpaceOnUse" x1="974.032" x2="941.311" xlink:href="#i" y1="1005.92" y2="910.973"/><linearGradient id="l" gradientUnits="userSpaceOnUse" x1="1061.78" x2="936.061" xlink:href="#i" y1="1300.61" y2="958.203"/><linearGradient id="m" gradientUnits="userSpaceOnUse" x1="1074.49" x2="862.89" xlink:href="#i" y1="1098.85" y2="484.88"/><linearGradient id="n" gradientUnits="userSpaceOnUse" x1="1156.82" x2="1148.21" xlink:href="#i" y1="1875.4" y2="560.006"/><linearGradient id="o" gradientUnits="userSpaceOnUse" x1="1083.42" x2="1083.42" xlink:href="#i" y1="1245.61" y2="524.51"/><linearGradient id="p" gradientUnits="userSpaceOnUse" x1="1241.73" x2="1240.71" xlink:href="#i" y1="909.094" y2="549.06"/><linearGradient id="q" gradientUnits="userSpaceOnUse" x1="1103.61" x2="1081.54" xlink:href="#i" y1="1159.94" y2="509.383"/><linearGradient id="r" gradientUnits="userSpaceOnUse" x1="1062.66" x2="1060.46" xlink:href="#g" y1="269.15" y2="1054.25"/><linearGradient id="s" gradientUnits="userSpaceOnUse" x1="998.315" x2="1113.92" xlink:href="#g" y1="1424.97" y2="652.112"/><linearGradient id="t" gradientUnits="userSpaceOnUse" x1="1093.22" x2="1095.4" xlink:href="#g" y1="630.064" y2="815.5"/><linearGradient id="u" gradientUnits="userSpaceOnUse" x1="672.216" x2="883.091" xlink:href="#a" y1="684.138" y2="473.103"/><linearGradient id="v" gradientUnits="userSpaceOnUse" x1="182.771" x2="1273.46" xlink:href="#a" y1="436.384" y2="533.606"/><linearGradient id="w"><stop offset="0" stop-color="#ff0061"/><stop offset="1" stop-color="#ff9724"/></linearGradient><linearGradient id="x" gradientUnits="userSpaceOnUse" x1="653.624" x2="988.394" xlink:href="#w" y1="384.491" y2="558.287"/><linearGradient id="y" gradientUnits="userSpaceOnUse" x1="1210.59" x2="734.054" xlink:href="#w" y1="489.447" y2="587.501"/><linearGradient id="z" gradientUnits="userSpaceOnUse" x1="986.454" x2="1144.54" xlink:href="#i" y1="872.246" y2="327.469"/><linearGradient id="A" gradientUnits="userSpaceOnUse" x1="1079.1" x2="1109.45" xlink:href="#g" y1="594.647" y2="459.933"/><linearGradient id="B" gradientUnits="userSpaceOnUse" x1="731.114" x2="1016.73" xlink:href="#a" y1="511.91" y2="425.63"/><linearGradient id="C" gradientUnits="userSpaceOnUse" x1="416.949" x2="1332.02" xlink:href="#a" y1="62.2819" y2="663.571"/><linearGradient id="D" gradientUnits="userSpaceOnUse" x1="856.411" x2="1069.23" xlink:href="#w" y1="239.07" y2="550.437"/><linearGradient id="E" gradientUnits="userSpaceOnUse" x1="1297.54" x2="831.274" xlink:href="#w" y1="594.774" y2="455.851"/><linearGradient id="F" gradientUnits="userSpaceOnUse" x1="1097.59" x2="963.702" xlink:href="#i" y1="454.971" y2="903.098"/><linearGradient id="G"><stop offset="0" stop-color="#44262a"/><stop offset=".11" stop-color="#4a282b"/><stop offset=".25" stop-color="#5b302c"/><stop offset=".41" stop-color="#783c30"/><stop offset=".5" stop-color="#804430"/><stop offset=".94" stop-color="#da7c61"/></linearGradient><linearGradient id="H" gradientUnits="userSpaceOnUse" x1="1025.11" x2="1027.35" xlink:href="#G" y1="451.972" y2="769.702"/><linearGradient id="I" gradientUnits="userSpaceOnUse" x1="984.616" x2="993.916" xlink:href="#G" y1="566.768" y2="760.368"/><linearGradient id="J" gradientUnits="userSpaceOnUse" x1="1094.47" x2="1103.35" xlink:href="#G" y1="582.746" y2="767.468"/><linearGradient id="K" gradientUnits="userSpaceOnUse" x1="1041.62" x2="1144.66" xlink:href="#a" y1="571.528" y2="851.288"/><linearGradient id="L" gradientUnits="userSpaceOnUse" x1="1061.67" x2="1116.42" xlink:href="#w" y1="624.394" y2="803.074"/><linearGradient id="M" gradientUnits="userSpaceOnUse" x1="1057.57" x2="1040.81" xlink:href="#a" y1="87.7262" y2="727.154"/><linearGradient id="N" gradientUnits="userSpaceOnUse" x1="1004.91" x2="987.537" xlink:href="#i" y1="598.88" y2="641.778"/><linearGradient id="O" gradientUnits="userSpaceOnUse" x1="995.944" x2="993.497" xlink:href="#w" y1="715.829" y2="372.926"/><linearGradient id="P" gradientUnits="userSpaceOnUse" x1="992.548" x2="1043.23" xlink:href="#w" y1="716.435" y2="377.288"/><linearGradient id="Q" gradientUnits="userSpaceOnUse" x1="963.207" x2="956.702" xlink:href="#w" y1="678.465" y2="596.836"/><linearGradient id="R" gradientUnits="userSpaceOnUse" x1="1320.41" x2="1043.06" xlink:href="#a" y1="505.723" y2="223.752"/><linearGradient id="S" gradientUnits="userSpaceOnUse" x1="988.006" x2="1188.06" xlink:href="#i" y1="439.582" y2="234.092"/><linearGradient id="T" gradientUnits="userSpaceOnUse" x1="1202.9" x2="1180.16" y1="429.263" y2="311.043"><stop offset="0" stop-color="#ff0061"/><stop offset=".72" stop-color="#ff9724"/><stop offset=".94" stop-color="#ffbd24"/></linearGradient><linearGradient id="U" gradientUnits="userSpaceOnUse" x1="1211.87" x2="1188.71" y1="430.264" y2="297.513"><stop offset="0" stop-color="#ff0061"/><stop offset=".53" stop-color="#ff9724"/><stop offset=".86" stop-color="#ffbd24"/></linearGradient><linearGradient id="V" gradientUnits="userSpaceOnUse" x1="1230.4" x2="1205.69" y1="463.875" y2="298.016"><stop offset="0" stop-color="#ff0061"/><stop offset=".53" stop-color="#ff9724"/><stop offset=".85" stop-color="#ffbd24"/></linearGradient><linearGradient id="W" gradientUnits="userSpaceOnUse" x1="1242.14" x2="1273.82" xlink:href="#a" y1="591.244" y2="334.392"/><linearGradient id="X" gradientUnits="userSpaceOnUse" x1="1424.81" x2="1268.14" xlink:href="#i" y1="1236.29" y2="445.267"/><linearGradient id="Y" gradientUnits="userSpaceOnUse" x1="1302.49" x2="1337.3" xlink:href="#i" y1="608.448" y2="281.915"/><linearGradient id="Z" gradientUnits="userSpaceOnUse" x1="1188.97" x2="1326.91" xlink:href="#a" y1="338.13" y2="527.111"/><linearGradient id="aa" gradientUnits="userSpaceOnUse" x1="1224.4" x2="1318.74" xlink:href="#g" y1="810.045" y2="433.887"/><linearGradient id="ab" gradientUnits="userSpaceOnUse" x1="1175.4" x2="1278.67" xlink:href="#i" y1="511.164" y2="384.682"/><linearGradient id="ac" gradientUnits="userSpaceOnUse" x1="1267.27" x2="1326.83" xlink:href="#i" y1="486.483" y2="262.976"/><linearGradient id="ad" gradientUnits="userSpaceOnUse" x1="981.924" x2="1099.87" xlink:href="#g" y1="293.502" y2="172.351"/><linearGradient id="ae" gradientUnits="userSpaceOnUse" x1="1217.46" x2="1278.57" xlink:href="#i" y1="433.152" y2="292.441"/><linearGradient id="af" gradientUnits="userSpaceOnUse" x1="1304.98" x2="1398.33" xlink:href="#i" y1="680.048" y2="524.826"/><linearGradient id="ag" gradientUnits="userSpaceOnUse" x1="1265.63" x2="1319.41" xlink:href="#i" y1="839.96" y2="406.913"/><linearGradient id="ah" gradientUnits="userSpaceOnUse" x1="1370.13" x2="1401.79" xlink:href="#i" y1="1111.51" y2="578.778"/><linearGradient id="ai" gradientUnits="userSpaceOnUse" x1="1172.53" x2="1162.11" xlink:href="#g" y1="1220.32" y2="682.112"/><linearGradient id="aj" gradientUnits="userSpaceOnUse" x1="1160.57" x2="1180.12" xlink:href="#g" y1="972.663" y2="666.212"/><linearGradient id="ak" gradientUnits="userSpaceOnUse" x1="1169.37" x2="1165.16" xlink:href="#i" y1="922.438" y2="822.233"/><linearGradient id="al" gradientUnits="userSpaceOnUse" x1="1239.17" x2="1296.97" xlink:href="#i" y1="1034.5" y2="724.81"/><linearGradient id="am" gradientUnits="userSpaceOnUse" x1="1101.46" x2="1121.48" xlink:href="#i" y1="1112.79" y2="939.206"/><linearGradient id="an" gradientUnits="userSpaceOnUse" x1="944.383" x2="950.355" xlink:href="#a" y1="583.503" y2="151.873"/><linearGradient id="ao" gradientUnits="userSpaceOnUse" x1="1167.77" x2="1175.26" xlink:href="#a" y1="611.73" y2="69.8318"/><linearGradient id="ap" gradientUnits="userSpaceOnUse" x1="1053.72" x2="1056.55" xlink:href="#a" y1="212.159" y2="7.40283"/><linearGradient id="aq" gradientUnits="userSpaceOnUse" x1="1087.54" x2="1091.46" xlink:href="#a" y1="595.087" y2="311.863"/><linearGradient id="ar" gradientUnits="userSpaceOnUse" x1="1223.27" x2="1225.58" xlink:href="#a" y1="367.971" y2="200.487"/><linearGradient id="as" gradientUnits="userSpaceOnUse" x1="854.081" x2="861.574" xlink:href="#a" y1="1296.52" y2="754.621"/><linearGradient id="at" gradientUnits="userSpaceOnUse" x1="67.4481" x2="74.9403" xlink:href="#a" y1="910.37" y2="368.472"/><linearGradient id="au" gradientUnits="userSpaceOnUse" x1="659.871" x2="662.196" xlink:href="#a" y1="514.69" y2="347.206"/><linearGradient id="av" gradientUnits="userSpaceOnUse" x1="27.1246" x2="29.4345" xlink:href="#a" y1="674.725" y2="507.241"/><linearGradient id="aw" gradientUnits="userSpaceOnUse" x1="770.074" x2="772.399" xlink:href="#a" y1="1061.63" y2="894.148"/><linearGradient id="ax" gradientUnits="userSpaceOnUse" x1="390.216" x2="431.446" xlink:href="#g" y1="2199.82" y2="236.786"/><linearGradient id="ay" gradientUnits="userSpaceOnUse" x1="289.895" x2="312.204" xlink:href="#i" y1="1487.79" y2="344.439"/><linearGradient id="az" gradientUnits="userSpaceOnUse" x1="171.434" x2="193.744" xlink:href="#i" y1="1485.48" y2="342.129"/><linearGradient id="aA" gradientUnits="userSpaceOnUse" x1="188.327" x2="210.636" xlink:href="#i" y1="1485.8" y2="342.465"/><linearGradient id="aB" gradientUnits="userSpaceOnUse" x1="409.237" x2="431.546" xlink:href="#i" y1="1490.12" y2="346.764"/><linearGradient id="aC" gradientUnits="userSpaceOnUse" x1="546.004" x2="568.313" xlink:href="#i" y1="1492.78" y2="349.441"/><linearGradient id="aD" gradientUnits="userSpaceOnUse" x1="608.267" x2="630.576" xlink:href="#i" y1="1493.99" y2="350.656"/><linearGradient id="aE" gradientUnits="userSpaceOnUse" x1="653.897" x2="676.207" xlink:href="#i" y1="1494.89" y2="351.538"/><linearGradient id="aF" gradientUnits="userSpaceOnUse" x1="620.066" x2="620.066" xlink:href="#g" y1="791.618" y2="670.36"/><linearGradient id="aG" gradientUnits="userSpaceOnUse" x1="624.399" x2="616.618" xlink:href="#a" y1="790.464" y2="573.516"/><linearGradient id="aH" gradientUnits="userSpaceOnUse" x1="741.143" x2="741.143" xlink:href="#g" y1="778.012" y2="656.754"/><linearGradient id="aI" gradientUnits="userSpaceOnUse" x1="745.475" x2="737.694" xlink:href="#a" y1="776.843" y2="559.895"/><linearGradient id="aJ" gradientUnits="userSpaceOnUse" x1="572.154" x2="572.154" xlink:href="#g" y1="633.59" y2="512.332"/><linearGradient id="aK" gradientUnits="userSpaceOnUse" x1="576.473" x2="568.693" xlink:href="#a" y1="632.421" y2="415.473"/><linearGradient id="aL" gradientUnits="userSpaceOnUse" x1="648.773" x2="648.773" xlink:href="#g" y1="601.591" y2="480.333"/><linearGradient id="aM" gradientUnits="userSpaceOnUse" x1="653.106" x2="645.325" xlink:href="#a" y1="600.437" y2="383.489"/><linearGradient id="aN" gradientUnits="userSpaceOnUse" x1="107.393" x2="107.393" xlink:href="#g" y1="861.649" y2="740.391"/><linearGradient id="aO" gradientUnits="userSpaceOnUse" x1="111.725" x2="103.944" xlink:href="#a" y1="860.48" y2="643.532"/><linearGradient id="aP" gradientUnits="userSpaceOnUse" x1="85.6953" x2="85.6953" xlink:href="#g" y1="768.055" y2="646.797"/><linearGradient id="aQ" gradientUnits="userSpaceOnUse" x1="90.0129" x2="82.2472" xlink:href="#a" y1="766.886" y2="549.938"/><linearGradient id="aR" gradientUnits="userSpaceOnUse" x1="204.246" x2="204.246" xlink:href="#g" y1="759.634" y2="638.376"/><linearGradient id="aS" gradientUnits="userSpaceOnUse" x1="208.564" x2="200.798" xlink:href="#a" y1="758.48" y2="541.532"/><linearGradient id="aT" gradientUnits="userSpaceOnUse" x1="259.744" x2="259.744" xlink:href="#g" y1="835.395" y2="714.137"/><linearGradient id="aU" gradientUnits="userSpaceOnUse" x1="264.077" x2="256.296" xlink:href="#a" y1="834.226" y2="617.278"/><linearGradient id="aV" gradientUnits="userSpaceOnUse" x1="357.25" x2="357.25" xlink:href="#g" y1="932.133" y2="810.875"/><linearGradient id="aW" gradientUnits="userSpaceOnUse" x1="361.569" x2="353.788" xlink:href="#a" y1="930.964" y2="714.016"/><linearGradient id="aX" gradientUnits="userSpaceOnUse" x1="469.965" x2="469.965" xlink:href="#g" y1="1026.47" y2="905.215"/><linearGradient id="aY" gradientUnits="userSpaceOnUse" x1="474.282" x2="466.517" xlink:href="#a" y1="1025.3" y2="808.356"/><linearGradient id="aZ"><stop offset="0" stop-color="#fff"/><stop offset=".55" stop-color="#80bcda"/><stop offset="1" stop-color="#0894aa"/></linearGradient><linearGradient id="a0" gradientUnits="userSpaceOnUse" x1="-172.59" x2="1598.51" xlink:href="#aZ" y1="337.689" y2="159.187"/><linearGradient id="a1" gradientUnits="userSpaceOnUse" x1="-174.171" x2="1596.93" xlink:href="#aZ" y1="322.02" y2="143.52"/><linearGradient id="a2" gradientUnits="userSpaceOnUse" x1="-166.31" x2="1604.78" xlink:href="#aZ" y1="399.953" y2="221.436"/><linearGradient id="a3" gradientUnits="userSpaceOnUse" x1="1513.91" x2="-827.66" xlink:href="#aZ" y1="1328.12" y2="730.413"/><linearGradient id="a4" gradientUnits="userSpaceOnUse" x1="1498.09" x2="-843.473" xlink:href="#aZ" y1="1390.03" y2="792.326"/><linearGradient id="a5" gradientUnits="userSpaceOnUse" x1="1537.7" x2="-803.865" xlink:href="#aZ" y1="1234.89" y2="637.185"/><linearGradient id="a6" gradientUnits="userSpaceOnUse" x1="43.7592" x2="-4.14217" xlink:href="#aZ" y1="-552.783" y2="1837.95"/><linearGradient id="a7" gradientUnits="userSpaceOnUse" x1="864.344" x2="816.458" xlink:href="#aZ" y1="-536.35" y2="1854.39"/><linearGradient id="a8" gradientUnits="userSpaceOnUse" x1="1041.94" x2="1024.43" xlink:href="#a" y1="1063.78" y2="188.263"/><linearGradient id="a9" gradientUnits="userSpaceOnUse" x1="1053.23" x2="1035.74" xlink:href="#a" y1="1063.55" y2="188.035"/><linearGradient id="ba" gradientUnits="userSpaceOnUse" x1="1227.16" x2="1209.67" xlink:href="#a" y1="1060.07" y2="184.554"/><clipPath id="bb"><path d="m0 0h1428v1207h-1428z"/></clipPath><g clip-path="url(#bb)"><path d="m609.362 1185.75s-19.858-15.97-34.454-27.98c-14.597-12.01-14.217-23.49-4.303-24.46 6.918-.67 21.773 5.61 43.075 24.46 0 0 7.42.45 13.395 1.75 0 0 17.471-14.49 39.244-23.82 21.773-9.34 46.663 15.06 46.663 15.06l-7.42 19.23-36.126 17.13-33.268 4.79-26.806-6.17z" fill="url(#b)"/><path d="m646.096 1196.13s-25.711 5.55-38.103 5.37-19.051-5.73-38.103-9.06c-19.051-3.33-29.786-8.33-22.381-17.01 7.404-8.68 36.446-5.37 46.982-.93 0 0 23.872-3.89 33.664 2.41 9.792 6.29 17.941 19.22 17.941 19.22z" fill="url(#c)"/><path d="m674.346 1199.31s-25.711 5.55-38.103 5.37c-12.392-.19-19.051-5.73-38.103-9.06-19.051-3.33-29.786-8.33-22.381-17.01 7.404-8.68 36.446-5.37 46.982-.93 0 0 23.872-3.89 33.664 2.4s17.941 19.23 17.941 19.23z" fill="url(#d)"/><path d="m760.725 1181.89s-12.56 2.48-26.867 6.9c-8.865 2.75-18.413 6.25-26.061 10.37-19.964 10.76-26.472 8.97-38.575 3.36-12.118-5.59-54.281-14.79-40.946-27.35 13.335-12.55 47.454 5.38 47.454 5.38 11.662-17.49 25.559-20.4 25.559-20.4-16.588-.45-25.787-14.57-25.787-14.57-39.244 3.36-48.442-11.22-47.104-18.61 1.353-7.4 6.066-4.04 27.368-4.83 21.302-.78 28.935-6.16 41.722-6.16s34.576 10.75 34.576 10.75l11.996 1.58.943 3.02z" fill="url(#e)"/><path d="m733.859 1188.79c6.903-27.16-1.795-62.06-1.795-62.06l12.94 4.6 15.721 50.56s-12.559 2.48-26.866 6.9z" fill="url(#f)"/><path d="m776.4 1119.37-9.427-10.53-1.626-3.5-36.857 7.89s10.659 50.63 37.83 79.29c0 0 25.65-2.83 49.537-21.88l-6.706-6.11-15.174-28.09-17.577-17.08z" fill="url(#h)"/><path d="m1052.84 973.987s-14.64 22.178-33.33 50.563c-4.73 7.19-9.72 14.77-14.79 22.49-.02.03-.05.06-.06.09-2.33 3.55-4.673 7.1-7.014 10.68-7.07 10.77-22.822 22.99-42.376 35.23-7.328 4.61-15.205 9.2-23.354 13.73-55.102 30.6-122.763 57.76-122.763 57.76-24.997-16.14-42.178-55.71-42.178-55.71s18.747-3.63 69.257-56.21 81.741-63.422 81.741-63.422c-.73-14.699 12.422-15.93 12.422-15.93s31.307-131.306 42.862-170.205c11.571-38.884 61.113-67.842 61.113-67.842l13.79 99.262 1.2 35.707z" fill="url(#j)"/><path d="m930.395 973.256s26.547 11.827 68.968 12.207c0 0-20.161-15.764-34.484-15.764s-34.484 3.557-34.484 3.557z" fill="url(#k)"/><path d="m987.61 1015.8c-34.53 0-62.522 27.99-62.522 62.53 0 10.24 2.463 19.89 6.827 28.44 8.15-4.53 16.026-9.12 23.354-13.73-2.067-4.48-3.208-9.47-3.208-14.71 0-19.64 15.919-35.54 35.549-35.54 6.173 0 11.981 1.56 17.04 4.34 0-.03.05-.06.07-.09 5.07-7.72 10.06-15.3 14.79-22.49-9.34-5.57-20.238-8.75-31.9-8.75z" fill="url(#l)"/><path d="m1052.84 973.988s-23.01 34.842-48.12 73.052c-49.951-105.035-22.537-224.849-22.537-224.849l67.177 47.99z" fill="url(#m)" opacity=".46"/><path d="m1275.63 965.187s.55-49.342 1.36-94.687c.3-16.584.64-32.636.99-45.526.6-22.087-13.98-52.504-29.94-78.969-18.86-31.238-39.64-56.958-39.64-56.958l-34.47 11.37-111.77 44.585-27.79-9.79s-62.466 41.635-55 138.177c7.48 96.526 71.25 183.251 71.25 183.251s-5.08 6.67 0 11.72c0 0 8.07 71.96-8.67 117.38 0 0 158.65 34.9 281.05-107.47 0 0-45.09-97.776-47.38-113.098z" fill="url(#n)"/><path d="m1094.77 1191.07c-.1 0-.21 0-.32-.01-1.24-.17-2.11-1.33-1.94-2.57 7.45-54.15 3.19-106.94 0-133.6-2.34-19.52-15.09-51.96-15.21-52.28l-.07-.23-11.51-41.907c-.34-1.216.38-2.462 1.59-2.797 1.22-.334 2.47.38 2.8 1.596l11.48 41.798c.97 2.5 13.08 33.58 15.45 53.3 3.22 26.87 7.51 80.12 0 134.77-.15 1.14-1.14 1.98-2.25 1.98z" fill="url(#o)"/><path d="m1277.98 824.972c-.35 12.891-.69 28.943-.99 45.527-68.58-40.663-72.27-134.878-72.27-134.878l43.32 10.382c15.96 26.465 30.54 56.882 29.94 78.969z" fill="url(#p)"/><path d="m1173.93 700.414s-22.88 28.197-25.58 92.68c0 0 3.14 9.698-51.1 54.48l11.94 21.965s-37.25 56.593-29.79 132.221c0 0-46.45-80.948-60.38-128.39l8.37-20.065s-16.26-16.25-20.9-32.956c-4.63-16.706 27.87-85.156 27.87-85.156l139.57-34.795z" fill="url(#q)"/><path d="m1039.75 766.008s-7.47 134.194 39.67 235.762c0 0-24.07-129.355 3.72-225.714l-20.98-31.04z" fill="url(#r)"/><path d="m1173.93 700.414-80.87 97.225-30.37-37.182-28.32 37.182v-62.43l11.6-8.209 10.58-7.479 63.04-29.991 22.61-9.151z" fill="url(#s)"/><path d="m1142.2 680.379-8.81 8.923-31.33 10.352-39.9 45.344c-5.75-2.478-12.51-12.176-16.19-17.998l10.58-7.479 63.04-29.991z" fill="url(#t)"/><path d="m754.492 382.957v.137c0 .045 0 .076-.016.137-.045 1.185-.243 6.202.153 13.802.03.517.06 1.049.091 1.581.045.76.091 1.535.152 2.341.106 1.672.258 3.435.456 5.275.03.425.076.836.122 1.277.775 7.448 2.083 16.143 4.287 25.522.198.897.411 1.778.639 2.691.137.516.274 1.033.395 1.565.426 1.672.897 3.375 1.384 5.077.289 1.019.593 2.037.912 3.056.259.805.502 1.611.76 2.417.061.228.137.456.228.668.213.685.441 1.369.685 2.053.334 1.018.714 2.037 1.079 3.07.168.487.35.988.548 1.475.288.805.608 1.611.912 2.417.319.82.638 1.641.988 2.462.183.487.396.973.608 1.459.426 1.034.867 2.068 1.338 3.117.168.395.335.79.533 1.17.228.547.471 1.079.714 1.611 7.876 16.904 19.341 33.716 36.005 47.579 3.543 2.965 7.344 5.686 11.388 8.209 1.627 1.018 3.269 1.991 4.957 2.934.563.319 1.141.638 1.703.942.578.319 1.14.623 1.718.912.578.304 1.171.608 1.734.897 5.975 3.01 12.3 5.655 18.914 7.965 1.658.578 3.33 1.14 5.018 1.688.152.045.304.091.471.152 1.095.349 2.205.684 3.3 1.003 1.824.547 3.679 1.079 5.549 1.581.016 0 .031 0 .046.015 1.216.334 2.418.638 3.634.942 1.231.32 2.463.608 3.71.913 1.9.44 3.816.866 5.717 1.276.608.137 1.216.259 1.809.365.639.137 1.262.259 1.901.38 2.752.547 5.504 1.049 8.271 1.505.7.107 1.384.228 2.083.335 3.619.577 7.253 1.094 10.902 1.535.608.091 1.216.152 1.84.228 3.223.395 6.462.729 9.7 1.018.685.061 1.384.122 2.068.183.593.045 1.201.106 1.794.152 1.931.152 3.862.289 5.793.425.396.031.776.061 1.156.076.106 0 .228.016.335.031.79.061 1.581.091 2.356.137 1.278.076 2.555.152 3.832.197 1.262.061 2.539.107 3.801.152.639.031 1.277.046 1.901.061 1.262.046 2.524.076 3.77.106 1.262.031 2.494.046 3.756.076.623 0 1.232.016 1.855.016.775.03 1.536.03 2.296.03h1.627 1.612c3.056 0 6.066-.03 9.016-.106 1.11-.031 2.205-.046 3.299-.092 4.182-.121 8.257-.319 12.195-.547 2.22-.121 4.394-.273 6.507-.425 1.308-.092 2.585-.198 3.862-.304 1.825-.153 3.634-.32 5.398-.487.882-.091 1.748-.182 2.6-.274.867-.091 1.703-.182 2.554-.273.685-.076 1.354-.152 2.023-.228.167-.031.319-.046.471-.061.715-.091 1.429-.182 2.129-.258 3.284-.411 6.374-.867 9.244-1.338.7-.106 1.37-.228 2.04-.334 1.12-.198 2.2-.396 3.25-.578.37-.061.73-.137 1.1-.228.42-.076.85-.167 1.27-.259 2.33-.471 4.43-.957 6.27-1.459.39-.106.79-.213 1.15-.319.06 0 .11-.03.17-.046.43-.121.84-.243 1.23-.364.99-.305 1.9-.609 2.78-.928 5.87-2.082 9.6-4.317 11.83-6.521.48-.471.87-.927 1.22-1.414 1.69-2.265 1.95-4.499 1.49-6.445-.23-1.033-.67-2.006-1.19-2.873-1.42-2.402-3.63-4.226-6.2-5.381-4.82-2.174-16.98-7.676-33.75-15.353-10.997-5.031-23.982-10.99-38.198-17.557-33.238-15.383-73.135-34.08-109.824-51.911-4.151-2.022-8.287-4.044-12.346-6.02-7.998-3.922-15.768-7.783-23.218-11.522-27.521-13.848-50.632-26.13-63.708-34.491z" fill="url(#u)"/><path d="m762.169 442.362c.289 1.018.593 2.037.913 3.055.258.806.502 1.611.76 2.417.061.228.137.456.228.669.213.684.441 1.368.684 2.052.335 1.018.715 2.037 1.08 3.071.167.486.35.988.547 1.474.289.806.608 1.611.913 2.417.319.821.638 1.642.988 2.463.182.486.395.972.608 1.459.426 1.034.867 2.067 1.338 3.116.167.395.335.791.532 1.171.228.547.472 1.079.715 1.611 7.876 16.903 19.34 33.715 36.005 47.579 3.542 2.964 7.344 5.685 11.388 8.208 1.627 1.019 3.269 1.992 4.957 2.934.562.319 1.14.638 1.703.942.577.32 1.14.624 1.718.913.578.304 1.171.608 1.733.896 5.976 3.01 12.301 5.655 18.915 7.966 1.657.577 3.33 1.14 5.017 1.687.153.046.305.091.472.152 1.095.35 2.204.684 3.299 1.003 1.825.547 3.68 1.08 5.55 1.581h.061c1.216.335 2.417.639 3.634.943 1.231.319 2.463.623 3.71.912 1.9.441 3.816.866 5.717 1.277.608.136 1.216.258 1.809.364.639.137 1.262.259 1.901.38 2.752.548 5.504 1.049 8.271 1.505.699.107 1.384.228 2.083.335 3.619.577 7.253 1.094 10.902 1.535.608.091 1.216.152 1.84.228 3.223.395 6.462.73 9.7 1.018.7.076 1.384.137 2.083.198.593.046 1.202.107 1.795.137 1.931.152 3.862.304 5.793.426.395.03.775.06 1.155.076.107.03.228.03.335.03.79.061 1.581.091 2.356.137 1.277.076 2.555.152 3.832.197 1.262.061 2.539.107 3.801.152.639.031 1.277.046 1.901.061 1.262.061 2.524.091 3.77.107 1.262.045 2.509.076 3.756.076.623 0 1.232.015 1.855.015.775.03 1.536.03 2.296.03h1.612 1.642c3.056 0 6.066-.03 9.016-.106 1.11-.031 2.205-.046 3.3-.091 4.181-.122 8.256-.32 12.194-.548 2.205-.136 4.394-.273 6.507-.425 1.308-.091 2.585-.198 3.862-.304 1.825-.152 3.634-.32 5.398-.487.882-.091 1.749-.182 2.6-.273.867-.092 1.703-.183 2.555-.274.684-.076 1.353-.152 2.022-.228.167-.03.319-.046.471-.061.715-.091 1.429-.182 2.129-.258 3.284-.411 6.374-.867 9.244-1.338.7-.106 1.37-.228 2.04-.334 1.12-.198 2.2-.396 3.25-.578.37-.061.73-.137 1.1-.228.42-.076.85-.167 1.27-.258 2.33-.472 4.43-.958 6.27-1.46.39-.106.79-.212 1.15-.319.06 0 .11-.03.17-.045.43-.122.84-.244 1.23-.365.99-.304 1.9-.608 2.78-.928 5.87-2.082 9.6-4.317 11.83-6.521-13.44-3.283-34.34-8.573-58.975-15.535-1.764-.502-3.543-1.003-5.352-1.52-13.152-3.755-27.278-7.981-41.813-12.602-6.006-1.915-12.088-3.906-18.216-5.943-7.982-2.676-16.025-5.457-24.038-8.33-28.403-10.246-56.44-21.768-80.281-34.218-2.038-1.064-4.03-2.128-5.991-3.207-3.436-1.87-6.766-3.755-9.974-5.67-15.874-9.41-26.563-10.717-33.436-6.537z" fill="url(#v)"/><path d="m754.492 382.957v.136c0 .046 0 .092-.016.137-.045 1.186-.243 6.202.153 13.803.03.517.06 1.049.091 1.581.045.76.091 1.535.152 2.341.106 1.672.258 3.435.456 5.274.03.426.076.836.122 1.277.775 7.449 2.083 16.144 4.287 25.522.198.897.411 1.779.639 2.691.137.517.274 1.034.395 1.566.426 1.672.897 3.374 1.384 5.077.289 1.018.593 2.037.912 3.055.259.806.502 1.612.76 2.417.061.228.137.456.228.669.213.684.441 1.368.685 2.052.349 1.019.714 2.037 1.079 3.071.168.486.35.988.548 1.474.288.806.608 1.612.912 2.417.319.821.638 1.642.988 2.463.183.486.396.973.608 1.459.426 1.034.867 2.067 1.338 3.116.168.395.335.791.517 1.186.244.532.487 1.064.73 1.596 7.876 16.903 19.341 33.716 36.005 47.579 3.543 2.964 7.344 5.685 11.388 8.208-6.948-24.412-8.332-46.803-7.283-65.379.061-1.231.152-2.447.244-3.633.623-8.406 1.748-15.976 3.01-22.528 1.08-5.472 2.266-10.23 3.391-14.152-27.521-13.848-50.632-26.13-63.708-34.491z" fill="url(#x)"/><path d="m1025.62 543.386c-12.59 3.906-42.57 8.011-77.434 7.965 22.29-12.647 30.257-24.489 33.085-30.964 24.629 6.962 45.539 12.252 58.969 15.535-2.56 2.539-7.11 5.123-14.62 7.464z" fill="url(#y)"/><path d="m1042.94 528.065c-37.42-14.197-233.255-89.579-288.312-131.047-.456-8.741-.137-14.061-.137-14.061 13.077 8.361 36.188 20.643 63.708 34.491 80.646 40.48 199.461 94.291 217.351 102.378 2.57 1.156 4.78 2.98 6.22 5.381.52.867.94 1.825 1.19 2.858z" fill="#fff3d2" opacity=".49"/><path d="m1176.53 479.561c-.12.395-.27.775-.46 1.14-2.07 5.107-10.47 26.951-14.64 53.264-1.31 8.269-2.2 16.994-2.33 25.765-.15 9.106.52 18.287 2.38 27.104 1.7 8.087-1.95 11.796-9.17 12.373-24.16 1.961-88.42-31.01-127.75-52.747-19.05-10.504-32.267-18.393-32.267-18.393l31.667-17.101 11.53-6.217.21-4.074 3.12-59.846c-.21-1.232-.15-2.432.18-3.557 3.62-11.72 37.33-11.766 75.31-.092 37.97 11.675 65.84 30.661 62.22 42.381z" fill="url(#z)"/><path d="m1161.43 533.965c-1.31 8.269-2.2 16.994-2.33 25.765-2.58 10.231-5.45 24.2-6.79 39.477-24.16 1.961-88.42-31.01-127.75-52.747l-.38-33.761c-.14-.593-.22-1.171-.22-1.733-.03-.623.04-1.232.17-1.824.93-3.861 5.07-6.704 11.57-8.467 13.58-3.694 37.44-2.66 63.57 3.602 29.99 7.16 54.16 19.108 62.16 29.688z" fill="url(#A)"/><path d="m945.797 285.307s-.03.031-.06.122c-.031.03-.046.076-.076.122-.609 1.018-3.148 5.35-6.386 12.236-.228.472-.441.943-.669 1.429-.32.684-.654 1.399-.973 2.144-.7 1.535-1.384 3.146-2.099 4.849-.167.38-.334.775-.486 1.185-2.844 6.917-5.793 15.216-8.287 24.519-.243.882-.471 1.764-.714 2.676-.122.517-.259 1.033-.396 1.565-.41 1.673-.806 3.39-1.171 5.138-.228 1.034-.44 2.068-.653 3.132-.152.836-.32 1.657-.472 2.493-.045.228-.091.456-.121.699-.137.699-.244 1.414-.38 2.128-.183 1.064-.335 2.143-.502 3.223-.076.517-.152 1.033-.228 1.55-.122.851-.228 1.718-.335 2.569-.106.867-.213 1.748-.289 2.63-.061.517-.121 1.049-.167 1.566-.106 1.124-.213 2.234-.289 3.374-.03.426-.076.851-.091 1.292-.061.578-.091 1.171-.122 1.748-1.049 18.606 1.095 38.839 9.23 58.95 1.718 4.286 3.786 8.482 6.157 12.601.943 1.657 1.947 3.299 2.981 4.925.349.548.699 1.095 1.064 1.627.35.547.715 1.079 1.079 1.626.365.548.746 1.08 1.11 1.612 3.832 5.472 8.165 10.792 12.894 15.945 1.186 1.292 2.387 2.585 3.619 3.861.121.122.228.228.35.35.805.821 1.611 1.642 2.432 2.447 1.354 1.353 2.737 2.691 4.136 4.013 0 0 .03 0 .03.046.913.866 1.825 1.703 2.752 2.554.928.851 1.886 1.702 2.844 2.554 1.459 1.292 2.949 2.569 4.44 3.815.471.41.942.79 1.429 1.186.502.425 1.003.82 1.49 1.231 2.174 1.794 4.364 3.527 6.583 5.244.563.426 1.11.852 1.673 1.277 2.919 2.219 5.869 4.393 8.88 6.506.501.365 1.003.715 1.52 1.064 2.656 1.87 5.356 3.694 8.076 5.473.58.38 1.15.76 1.75 1.14.5.334 1 .653 1.5.988 1.63 1.049 3.27 2.082 4.91 3.101.34.212.66.425.99.608.09.06.18.121.27.182.67.426 1.36.836 2.03 1.231 1.09.669 2.17 1.338 3.28 1.976 1.1.654 2.19 1.293 3.27 1.931.55.334 1.11.654 1.64.958 1.1.638 2.19 1.261 3.29 1.869 1.09.624 2.17 1.232 3.27 1.84.54.289 1.08.608 1.62.897.67.38 1.34.744 2.01 1.109.49.259.96.517 1.43.76.47.259.96.502 1.43.76 2.69 1.444 5.35 2.828 8 4.165.98.502 1.96 1.004 2.95 1.49 3.74 1.87 7.42 3.618 11 5.29 2.01.942 4 1.839 5.93 2.691 1.2.532 2.38 1.048 3.55 1.55 1.68.73 3.34 1.429 4.98 2.128.82.335 1.63.669 2.42 1.003.81.32 1.6.639 2.39.958.64.259 1.26.502 1.88.76.16.061.31.107.44.167.69.259 1.34.517 2 .776 3.08 1.185 6.02 2.249 8.77 3.192.67.228 1.31.441 1.95.669 1.08.364 2.12.714 3.14 1.033.35.122.72.213 1.08.32.41.136.84.258 1.25.38 2.28.684 4.36 1.246 6.22 1.687.39.091.79.182 1.17.273.06 0 .11.031.17.031.42.091.85.182 1.26.258 1 .198 1.96.365 2.89.502 6.15.942 10.49.745 13.5-.152.62-.198 1.22-.411 1.73-.669 2.57-1.201 3.83-3.04 4.37-4.986.28-1.033.36-2.082.3-3.086-.12-2.781-1.2-5.442-2.92-7.676-3.22-4.196-11.34-14.791-22.49-29.475-7.31-9.637-15.93-21.023-25.34-33.533-22.02-29.262-48.34-64.589-72.24-97.651-2.71-3.754-5.38-7.463-8.03-11.142-5.199-7.236-10.217-14.304-15.022-21.129-17.713-25.204-32.264-46.956-39.836-60.515z" fill="url(#B)"/><path d="m924.48 341.294c-.228 1.034-.44 2.067-.653 3.131-.152.836-.32 1.657-.472 2.493-.045.228-.091.456-.121.7-.137.699-.244 1.413-.38 2.128-.183 1.064-.335 2.143-.502 3.222-.076.517-.152 1.034-.228 1.551-.122.851-.228 1.718-.335 2.569-.106.866-.213 1.748-.289 2.63-.061.516-.121 1.048-.167 1.565-.106 1.125-.213 2.235-.289 3.375-.03.425-.076.851-.091 1.292-.061.578-.091 1.17-.122 1.748-1.049 18.606 1.095 38.838 9.23 58.949 1.718 4.287 3.786 8.482 6.157 12.602.943 1.657 1.947 3.298 2.981 4.925.349.547.699 1.094 1.064 1.626.35.548.715 1.08 1.079 1.627.365.547.746 1.079 1.11 1.611 3.832 5.473 8.165 10.793 12.894 15.946 1.186 1.292 2.387 2.584 3.619 3.861.121.122.228.228.35.35.805.821 1.611 1.641 2.432 2.447 1.354 1.353 2.737 2.691 4.136 4.013 0 0 .03.03.046.046.912.866 1.824 1.702 2.752 2.553.927.852 1.885 1.718 2.843 2.554 1.46 1.292 2.95 2.569 4.44 3.816.471.41.942.79 1.429 1.185.502.426 1.003.821 1.49 1.232 2.174 1.793 4.364 3.526 6.584 5.244.562.426 1.11.851 1.672 1.277 2.92 2.219 5.869 4.393 8.88 6.506.502.365 1.003.714 1.52 1.064 2.661 1.87 5.351 3.694 8.071 5.472.58.395 1.16.775 1.75 1.155.5.335 1.01.654 1.51.973 1.62 1.049 3.27 2.083 4.91 3.101.33.213.65.426.99.608.09.076.18.137.27.183.67.425 1.35.836 2.02 1.231 1.1.669 2.18 1.338 3.29 1.976 1.09.654 2.19 1.292 3.27 1.931.54.334 1.11.653 1.64.957 1.09.654 2.19 1.277 3.28 1.87 1.1.638 2.19 1.247 3.27 1.839.55.289 1.08.608 1.63.897.67.38 1.34.745 2 1.11.48.258.95.502 1.42.76.49.258.96.517 1.44.76 2.69 1.444 5.36 2.827 8 4.165.99.502 1.96 1.003 2.95 1.49 3.74 1.869 7.42 3.618 11.01 5.29 2.01.927 4 1.839 5.93 2.69 1.2.532 2.37 1.049 3.54 1.551 1.69.729 3.35 1.429 4.99 2.128.82.334 1.63.669 2.42 1.003.8.319 1.59.639 2.38.958.64.258 1.27.501 1.89.76.15.061.3.106.44.167.68.258 1.34.517 1.99.775 3.09 1.186 6.02 2.25 8.77 3.192.67.228 1.31.441 1.95.669 1.08.365 2.13.715 3.15 1.034.35.122.71.213 1.08.319.41.137.83.259 1.24.38 2.29.684 4.37 1.247 6.22 1.687.4.092.79.183 1.17.274.06 0 .11.031.17.031.43.091.85.182 1.26.258 1.01.198 1.96.365 2.89.502 6.16.942 10.49.744 13.5-.152-10.29-9.243-26.21-23.79-44.62-41.56-1.31-1.277-2.65-2.554-3.99-3.876-9.82-9.531-20.26-19.928-30.88-30.873-4.39-4.53-8.8-9.151-13.22-13.848-5.77-6.141-11.55-12.389-17.25-18.713-20.173-22.451-39.438-45.846-54.567-68.1-1.292-1.9-2.554-3.77-3.77-5.654-2.144-3.269-4.182-6.506-6.113-9.699-9.533-15.793-18.337-21.995-26.365-21.555z" fill="url(#C)"/><path d="m945.798 285.308s-.031.031-.061.122c-.03.03-.046.076-.076.121-.608 1.019-3.147 5.351-6.386 12.237-.228.471-.441.943-.669 1.429-.319.684-.654 1.399-.973 2.143-.699 1.536-1.384 3.147-2.098 4.849-.168.38-.335.776-.487 1.186-2.843 6.917-5.793 15.216-8.286 24.519-.244.882-.472 1.764-.715 2.676-.122.516-.259 1.033-.395 1.565-.411 1.672-.806 3.39-1.171 5.138-.228 1.034-.441 2.068-.654 3.132-.152.836-.319 1.657-.471 2.493-.046.228-.092.456-.122.699-.137.699-.243 1.414-.38 2.128-.167 1.064-.335 2.143-.502 3.223-.076.516-.152 1.033-.228 1.55-.122.851-.228 1.718-.334 2.569-.107.866-.213 1.748-.289 2.63-.061.517-.122 1.049-.168 1.565-.106 1.125-.212 2.235-.288 3.375-.031.426-.076.851-.092 1.292-.045.578-.076 1.171-.106 1.748-1.049 18.606 1.095 38.839 9.229 58.95 1.718 4.286 3.786 8.482 6.158 12.601 5.413-24.793 14.779-45.177 24.495-61.062.639-1.049 1.292-2.083 1.931-3.086 4.531-7.114 9.092-13.255 13.304-18.423 3.543-4.302 6.827-7.951 9.67-10.869-17.713-25.203-32.264-46.956-39.836-60.515z" fill="url(#D)"/><path d="m1108.87 554.819c-12.94-2.508-41.3-13.058-72.01-29.581 25.62-.608 38.24-7.282 43.79-11.644 18.41 17.77 34.33 32.317 44.63 41.559-3.46 1.034-8.69 1.155-16.41-.334z" fill="url(#E)"/><path d="m1131.39 549.501c-26.26-30.204-163.195-189.176-192.115-251.743 3.741-7.92 6.538-12.449 6.538-12.449 7.572 13.544 22.123 35.296 39.837 60.499 51.92 73.786 131.17 177.365 143.12 192.931 1.72 2.234 2.8 4.894 2.94 7.676.04 1.003-.03 2.067-.32 3.086z" fill="#fff3d2" opacity=".49"/><path d="m1257.51 628.053c8.06-26.183-72.2-74.101-179.26-107.029-107.061-32.928-200.382-38.396-208.439-12.213-8.057 26.182 72.201 74.101 179.259 107.029 107.06 32.928 200.38 38.396 208.44 12.213z" fill="url(#F)"/><path d="m1123.22 618.407 7.19-11.067s-28.09-79.151-161.06-75.67c0 0-33.451 16.067-43.319 40.343s-.76 46.926 13.654 48.871c0 0-12.148-26.495 8.348-38.184 0 0-9.868 35.843 23.521 47.731 33.386 11.887 151.656-12.009 151.656-12.009z" fill="url(#H)"/><path d="m976.633 573.062-2.98-9.972s-28.585 28.912-7.481 66.048c21.105 37.136 48.858-10.93 48.858-10.93z" fill="url(#I)"/><path d="m1067.24 586.531 2.78-6.582s25.56-3.466 48.72 27.301c23.15 30.767-42.97 49.358-42.97 49.358z" fill="url(#J)"/><path d="m1133.39 689.305-71.23 55.697c-7.6-4.667-7.45-9.881-7.45-9.881.07-3.527-.76-7.22-2.01-10.717-3.28-9.257-9.44-17.146-9.44-17.146s34.79-39.888 55.77-54.313c8.29-5.716 14.41-7.449 15.4-1.171.29 1.885.69 3.74 1.14 5.518 4.85 19.153 17.82 32.013 17.82 32.013z" fill="url(#K)"/><path d="m1115.57 657.289s-15.32 50.68-62.87 67.112c-3.28-9.257-9.44-17.147-9.44-17.147s34.79-39.887 55.77-54.313z" fill="url(#L)"/><path d="m1047.56 714.43c-68.631 17.649-87.5-33.426-90.922-52.352-.182-1.064-.319-2.082-.41-3.055-.532-6.035.76-10.702 2.646-14.228 3.299-6.202 8.393-8.801 8.393-8.801-9.838-56.168 6.386-72.904 6.386-72.904 27.327 35.859 96.367 16.843 96.367 16.843 16.66 10.853 28.3 38.473 28.3 38.473s16.45-22.756 28.82-18.454-9.47 96.45-79.58 114.478z" fill="url(#M)"/><path d="m1018.06 646.753c9.49-1.327 16.52-7.243 15.68-13.213-.83-5.969-9.21-9.733-18.71-8.405-9.49 1.328-16.517 7.243-15.682 13.213.832 5.97 9.212 9.733 18.712 8.405z" fill="#fff3d2" opacity=".49"/><path d="m998.574 634.839c7.246-.683 12.426-8.623 11.566-17.733-.86-9.111-7.43-15.942-14.68-15.258-7.248.684-12.427 8.623-11.567 17.734.86 9.11 7.432 15.941 14.681 15.257z" fill="url(#N)"/><path d="m992.296 620.899c2.587 0 4.683-2.096 4.683-4.682s-2.096-4.682-4.683-4.682c-2.586 0-4.683 2.096-4.683 4.682s2.097 4.682 4.683 4.682z" fill="#fff"/><path d="m1016.8 603.418c-1.26 0-2.53-.396-3.63-1.201-18.412-13.742-36.05-4.013-36.795-3.588-2.904 1.642-6.614.654-8.286-2.249-1.673-2.904-.7-6.598 2.204-8.27 1.019-.593 25.179-14.273 50.157 4.378 2.7 2.007 3.24 5.822 1.24 8.513-1.21 1.596-3.03 2.447-4.89 2.447z" fill="url(#O)"/><path d="m984.114 689.136c-1.201-.182-2.053-1.292-1.916-2.508.137-1.246 1.277-2.143 2.524-2.006.897.091 21.108 2.037 25.788-19.989.26-1.232 1.46-2.022 2.71-1.764 1.23.259 2.02 1.475 1.76 2.706-4.44 20.932-22.078 24.58-30.775 23.577-.03 0-.061 0-.091 0z" fill="url(#P)"/><path d="m966.157 647.44c.273 3.74-6.158 8.908-9.929 11.583-.532-6.034.76-10.701 2.646-14.228 3.086-.516 7.039-.547 7.283 2.645z" fill="url(#Q)"/><path d="m1265.95 444.418-7.18 1.246s-43.29-16.918-58.67-33.731c-15.39-16.812-5.99-23.941-22.81-37.895-16.82-13.955-8.27-23.091 2.28-19.944s44.75 27.924 44.75 27.924l25.65 23.653 15.96 38.762z" fill="url(#R)"/><path d="m1252.19 380.42-22.76 17.831-160.14-182.624-9.27-10.58-3.74-4.256-7.14-8.133-7.89-8.998c-3.17-4.074-.67-11.371 5.63-16.296 6.28-4.925 13.96-5.609 17.15-1.55l7.39 8.421 7.89 8.999 3.82 4.363 9.61 10.959z" fill="url(#S)"/><path d="m1207.99 328.496s0-9.546-9.55-9.06-33.18 5.989-36.89 13.757c-3.71 7.767 7.12 27.24 15.7 27.529 8.57.289 30.74-32.226 30.74-32.226z" fill="url(#T)"/><path d="m1220.38 338.086s-8.21-16.569-16.25-13.955c-8.05 2.615-32.01 25.933-29.38 34.294 2.63 8.36 15.6 14.441 15.6 14.441l30.05-34.795z" fill="url(#U)"/><path d="m1242.82 355.949s-13.39-26.328-23.47-23.47c-10.08 2.857-34.61 31.587-30.85 40.769 3.75 9.181 24.07 15.945 24.07 15.945l30.24-33.244z" fill="url(#V)"/><path d="m1315.99 457.765-38.59-2.311-18.63-9.805h-.01c-.81-.349-26.58-11.446-29.42-42.714 0 0-10.6 3.298-21.56-11.325-10.97-14.623-6.41-21.373 10.96-35.266 17.36-13.894 20.3-14.259 30.89 1.094 10.6 15.353 67.62 64.437 75.66 75.899 8.06 11.446-9.3 24.428-9.3 24.428z" fill="url(#W)"/><path d="m1426.42 662.822c-2.33 8.254-7.6 17.922-14.81 28.35-4.76 6.856-10.34 14.046-16.5 21.373-44.06 52.473-117.13 112.426-117.13 112.426s-33.82 1.049-59.71-48.613c-25.9-49.661-9.87-87.314-9.87-87.314 32.86-8.148 87.24-43.323 87.24-43.323-4.07-20.354 6.12-23.257 6.12-23.257l-21.47-104.37-8.23-39.994 75.19-10.959s5 7.615 12.51 19.974c15.91 26.16 43.05 73.587 57.86 115.086 3.22 9.014 5.85 17.755 7.66 25.933 3 13.498 3.74 25.492 1.14 34.688z" fill="url(#X)"/><path d="m1359.76 487.115c-6.95 7.448-29.71 27.012-79.47 30.979l-8.23-39.994 75.19-10.959s5 7.615 12.51 19.974z" fill="url(#Y)"/><path d="m1258.76 445.631c-.81-.334-26.58-11.431-29.42-42.699.12 0 7.64-.031 12.74-7.373 5.15-7.418 16.04 19.199 16.04 19.199s-14.72 13.195.64 30.873z" fill="url(#Z)"/><path d="m1258.77 445.649s39.11 9.242 66.52-12.313l39.43 44.949s-36.34 24.945-102.25 15.399z" fill="url(#aa)"/><path d="m1292.86 424.412-22.78 17.831-35.85-38.793-4.15-4.485c-.23-.212-.46-.456-.65-.714-3.2-4.074-.69-11.355 5.61-16.28 4.59-3.588 9.91-4.94 13.7-3.816 1.39.411 2.6 1.171 3.45 2.265l40.05 43.308c.22.213.42.441.62.684z" fill="url(#ab)"/><path d="m1287.23 440.658c6.29-4.923 8.8-12.215 5.61-16.286s-10.87-3.381-17.16 1.542-8.8 12.215-5.61 16.286 10.87 3.381 17.16-1.542z" fill="url(#ac)"/><path d="m1092.74 198.557s-15.16.608-23.45 17.071l-9.27-10.58-3.74-4.257c3.25-6.05 10.67-16.66 23.03-17.557l3.82 4.363z" fill="url(#ad)"/><path d="m1248.74 378.155s-17.16 6.324-14.51 25.295l-4.15-4.485c-.23-.212-.46-.456-.65-.714-3.2-4.074-.69-11.355 5.61-16.28 4.59-3.588 9.91-4.94 13.7-3.816z" fill="url(#ae)"/><path d="m1301.75 622.467s45.34 4.803 78.69-4.895c0 0-30.24-13.559-47.3-11.233-17.06 2.325-31.39 16.128-31.39 16.128z" fill="url(#af)"/><path d="m1295.64 645.723s5.57 82.358-18.34 162.862c0 0-12.98-62.84-9.79-92.36 3.2-29.521 28.15-70.502 28.15-70.502z" fill="url(#ag)"/><path d="m1397.47 662.824c0-16.979 11.9-31.161 27.81-34.688-1.81-8.178-4.44-16.919-7.66-25.933-27.08 6.871-47.12 31.405-47.12 60.621 0 20.279 9.65 38.292 24.61 49.723 6.16-7.327 11.74-14.517 16.5-21.373-8.59-6.475-14.14-16.766-14.14-28.35z" fill="url(#ah)"/><path d="m1133.39 869.54-2.98-5.594 48.84-69.362c1.7-2.432 5.48-1.764 6.24 1.109l15.09 56.457-67.2 17.405z" fill="url(#ai)"/><path d="m1144.86 866.47 33.15-48.294c.68-1.003 2.23-.729 2.53.426l9.98 36.817z" fill="url(#aj)"/><path d="m1126.32 865.997s34.52-18.88 79.19-20.704l2.1 19.792s-53.36 9.622-74.23 19.791l-7.07-18.879z" fill="url(#ak)"/><path d="m1275.63 965.187s-22.97 41.053-59.45 60.073c0 0 29.18-.64 44.1-14.59 14.91-13.956 15.37-45.498 15.37-45.498z" fill="url(#al)" opacity=".43"/><path d="m1050.62 1056.63s57.76 18.99 114.87-2.03c0 0-33.75 22.89-70.53 25.4s-44.33-23.35-44.33-23.35z" fill="url(#am)" opacity=".43"/><path d="m1006.43 192.87c-41.581 8.314-48.317 15.049-56.634 56.623-8.317-41.574-15.053-48.309-56.638-56.623 41.585-8.315 48.321-15.049 56.638-56.624 8.317 41.575 15.053 48.309 56.634 56.624z" fill="url(#an)"/><path d="m1245.66 121.317c-52.19 10.443-60.66 18.895-71.11 71.095-10.44-52.185-18.9-60.652-71.11-71.095 52.2-10.443 60.67-18.894 71.11-71.0943 10.45 52.1843 18.9 60.6513 71.11 71.0943z" fill="url(#ao)"/><path d="m1083.14 26.8601c-19.72 3.937-22.93 7.1444-26.87 26.86-3.93-19.7156-7.14-22.923-26.86-26.86 19.72-3.9371 22.93-7.1445 26.86-26.8601 3.94 19.7156 7.15 22.923 26.87 26.8601z" fill="url(#ap)"/><path d="m1128.25 338.768c-27.27 5.457-31.7 9.881-37.16 37.151-5.45-27.27-9.88-31.694-37.16-37.151 27.28-5.457 31.71-9.88 37.16-37.151 5.46 27.271 9.89 31.694 37.16 37.151z" fill="url(#aq)"/><path d="m1247.34 216.387c-16.14 3.223-18.75 5.837-21.97 21.966-3.23-16.129-5.84-18.743-21.98-21.966 16.14-3.222 18.75-5.837 21.98-21.965 3.22 16.128 5.83 18.743 21.97 21.965z" fill="url(#ar)"/><path d="m931.975 806.106c-52.198 10.444-60.667 18.895-71.112 71.095-10.446-52.185-18.9-60.651-71.113-71.095 52.198-10.443 60.667-18.894 71.113-71.094 10.445 52.185 18.899 60.651 71.112 71.094z" fill="url(#as)"/><path d="m145.327 419.942c-52.1981 10.443-60.6671 18.895-71.1128 71.095-10.4457-52.185-18.8995-60.652-71.11264-71.095 52.19794-10.443 60.66694-18.894 71.11264-71.094 10.4457 52.184 18.8995 60.651 71.1128 71.094z" fill="url(#at)"/><path d="m683.955 363.122c-16.132 3.222-18.747 5.837-21.97 21.965-3.224-16.128-5.839-18.743-21.971-21.965 16.132-3.223 18.747-5.838 21.971-21.966 3.223 16.128 5.838 18.743 21.97 21.966z" fill="url(#au)"/><path d="m51.1937 523.157c-16.1323 3.222-18.7475 5.837-21.9709 21.965-3.2234-16.128-5.8386-18.743-21.97085-21.965 16.13225-3.223 18.74745-5.837 21.97085-21.966 3.2234 16.129 5.8386 18.743 21.9709 21.966z" fill="url(#av)"/><path d="m794.159 910.063c-16.133 3.223-18.748 5.837-21.971 21.965-3.224-16.128-5.839-18.742-21.971-21.965 16.132-3.223 18.747-5.837 21.971-21.965 3.223 16.128 5.838 18.742 21.971 21.965z" fill="url(#aw)"/><path d="m778.788 724.949c0 47.321-9.199 92.498-25.909 133.829-47.636 117.929-156.396 204.632-287.035 220.902-10.598 1.32-21.363 2.19-32.234 2.55-4.12.14-8.256.21-12.407.21-174.748 0-320.227-125.342-351.3971-291.002-4.0596-21.555-6.1731-43.763-6.1731-66.489 0-67.766 18.8539-131.108 51.6202-185.102 4.151-6.87 8.545-13.604 13.167-20.156 11.039-15.718 23.324-30.524 36.72-44.235 19.158-19.67 40.581-37.136 63.845-51.987 43.531-27.803 93.494-46.439 147.166-53.188 14.749-1.855 29.786-2.812 45.052-2.812 48.64 0 95.03 9.713 137.299 27.316 11.343 4.697 22.396 9.987 33.116 15.809 24.388 13.24 47.074 29.246 67.615 47.594 20.588 18.363 39.046 39.082 54.92 61.731 8.94 12.738 17.075 26.07 24.297 39.948 25.772 49.388 40.338 105.525 40.338 165.082z" fill="url(#ax)"/><path d="m374.783 453.202c-3.041 12.526 2.448 21.069-6.401 31.451-8.865 10.367-24.434 21.357-24.434 37.546s9.168 36.011-2.129 40.891c-11.297 4.895-20.77-26.556-32.979-37.227-12.21-10.686-6.918-14.927-19.417-20.172-12.498-5.229-8.666-30.417-16.923-35.646-8.271-5.244-20.754-5.047-25.392-14.912-4.09-8.695-10.354-22.239-18.124-31.664 43.532-27.802 93.494-46.439 147.167-53.188 6.417 13.407 16.345 35.783 16.345 45.694 0 14.639-14.657 24.717-17.713 37.227z" fill="url(#ay)"/><path d="m165.139 475.457c12.636 4.059 27.08 9.577 30.623 14.532 6.599 9.227 12.528 5.275 17.485 8.893 4.942 3.633 7.101 8.588 14.886 12.662 7.769 4.074 23.324 6.476 23.886 13.879.548 7.402-20.739 14.258-20.739 19.624s22.214 14.988 16.847 24.625c-5.367 9.623-16.847-2.036-29.254-1.489-12.407.562-21.302 5.183-27.034 1.489-5.747-3.709-5.565-13.893 2.965-22.771 8.515-8.892-1.11-19.077-12.407-18.879-11.297.182-17.775-1.49-21.485-3.709-3.542-2.113-10.856 3.678-32.492-4.621z" fill="url(#az)"/><path d="m330.233 657.626c-16.269.228-6.645-11.917-13.76-21.084-7.101-9.166-13.289 10.991-26.806 18.333-13.517 7.327-12.833 16.721-1.597 13.741 11.221-2.979 16.041-8.254 19.006.563 2.98 8.832 16.041 1.186 11.236 10.853-4.819 9.668-13.517 17.922-46.982 14.943-33.451-2.995-7.755 64.877-7.755 64.877s.365 11.523 6.462 16.159c6.097 4.652 12.058 12.191 4.06 18.591-7.982 6.384-14.08-13.803-23.522-12.921-9.427.866-22.351 21.19-18.428 33.533 3.908 12.328 15.524 11.021 24.236 4.637 8.713-6.385 12.058 4.499 11.906 12.632-.137 8.132 12.346 1.748 17.865 3.921 5.52 2.174 4.79 14.654 10.461 17.132 5.656 2.462 16.117-.578 13.213 6.825s-12.635 9.577-24.115.867c-11.464-8.711-22.791-4.211-33.1-.152-10.309 4.073-14.658-10.596-26.563-8.118-11.905 2.463-9.153-3.207-13.806-3.055-4.637.152-11.616 1.748-23.233-1.885-11.616-3.633-4.637 2.463-14.657-2.903s-13.791-15.384-19.888-11.614 9.001 18.287 5.945 25.112c-3.041 6.825-17.85-.289-31.367-11.325-13.502-11.036-16.376-10.884-21.743-23.044-5.352-12.161-10.537-13.316-26.35-22.254-3.8012-2.144-7.5719-5.974-11.1451-10.55-4.0596-21.555-6.1731-43.763-6.1731-66.489 0-67.766 18.8539-131.108 51.6202-185.102 5.063 2.372 9.533 5.427 11.875 9.318 7.633 12.693 11.069 6.081 11.069 0 0-6.08-1.156-21.22 12.605-14.805 13.745 6.415 25.194 22.452 14.429 31.39s-11.692 3.207-10.765 11.446c.912 8.254 1.14 22.224-8.028 34.369-9.169 12.146 7.329 32.302 32.766 31.39 25.438-.912 32.082-30.204 28.768-38.473-3.33-8.27-4.851-21.327 11.038-18.576 15.889 2.752 23.446 6.871 27.338 13.742 3.908 6.886 14.217 4.818 16.969-1.596 2.752-6.415 12.605-20.157 20.617-8.026 8.029 12.145 3.893 17.42 13.517 17.42 9.625 0 23.157 6.947 23.385 15.505.228 8.543 8.698 1.9 11.921 9.698 3.208 7.783 2.281 7.327 8.013 11.446 5.732 4.135 5.732 13.286-10.537 13.529z" fill="url(#aA)"/><path d="m433.61 1082.23c-4.683-12.69-10.552-29.05-15.874-44.98-11.054-33.15-7.07-36.22-6.751-58.644.304-22.406-17.82-40.526-39.015-42.365-21.18-1.84-28.251-5.533-42.68-31.664-14.444-26.13 3.071-39.872-2.463-51.85-5.519-11.979 2.463-19.032 25.802-23.957 23.34-4.925 35.321 1.232 45.447 2.767 10.142 1.535 4.303-3.071 19.356-2.767 15.053.289 8.91 10.139 16.892 10.139 7.983 0 11.663 13.514 32.554 7.677 20.876-5.837 22.108-3.071 30.713 3.07 8.591 6.141 11.358-3.998 19.341 12.283 7.982 16.265-10.126 27.012-6.751 42.821s.912 29.337-14.749 42.532c-15.661 13.209-11.966 21.494-11.966 36.847s-13.213 13.194-13.502 26.711c-.288 13.51-2.478 19.03-6.781 32.24-2.417 7.45.046 23.76 2.661 36.59z" fill="url(#aB)"/><path d="m558.502 394.785c-5.793 8.741-14.323 23.82-14.323 36.726 0 19.548 3.467 12.373 1.734 21.281-1.734 8.892-13.578 15.824-6.919 23.987 6.66 8.163 23.248-2.964 31.9-2.235 8.667.745 8.408 10.976 7.678 20.339-.745 9.349 14.84 17.177 15.327 2.007.501-15.171 3.223-22.832-5.444-31.983-8.651-9.151-15.584-13.605-13.608-24.732 1.81-10.124 14.658-13.894 16.771-29.581z" fill="url(#aC)"/><path d="m713.392 571.009c-8.91 8.406-29.193-4.697-34.636-8.908-5.443-4.195-11.13-1.733-11.738 3.223-.624 4.94 16.695 15.079 5.808 18.788-10.887 3.724-16.832 0-17.561-7.904-.745-7.92-5.702-22.011-21.53-24.489-15.829-2.478-13.852 12.373-7.42 12.373 6.431 0 1.976 11.127 11.373 14.335 9.412 3.222 12.863 17.071 6.431 20.536-6.431 3.466-20.039-1.489-20.039-8.406 0-6.916-5.93-12.13-16.574-12.13-10.643 0-18.549 4.211-24.738 14.35-6.188 10.139 3.954 38.58-14.353 45.511-18.307 6.917-22.016-8.908-21.028-15.338s.988-4.21-6.918-9.895c-7.922-5.686-3.969-16.068 4.455-16.068 8.423 0 18.306-1.246 15.828-12.13-2.479-10.884-22.518-8.649-23.005-13.848-.502-5.199 5.687-3.208 6.432-13.362.745-10.139 11.631-12.115 11.631-12.115s37.602-35.114 57.14-47.305c12.285-7.646 32.751-26.83 46.283-40.039 20.587 18.362 39.046 39.081 54.92 61.73-11.541-1.094-23.127 2.448-28.965 6.947-9.154 7.054-4.699 20.157 7.419 19.914 12.134-.259 29.695 15.824 20.785 24.23z" fill="url(#aD)"/><path d="m778.789 724.949c0 47.321-9.199 92.498-25.909 133.829-9.533-13.604-22.092-32.241-22.092-36.041 0-6.141 4.409-18.652-18.413-27.24-22.822-8.589-7.602-16.934-21.834-24.048s-7.861-15.459-9.321-24.534c-1.475-9.075-27.247-14.228-43.683-2.691-16.451 11.522-48.351 20.111-66.521 8.087-18.154-12.024-11.282-51.273-7.116-60.348 4.182-9.075 0-10.549 8.591-29.687s21.925-13.681 30.927-28.715c9.001-15.018-3.68-19.138 10.065-24.032 13.745-4.91 23.552 19.624 36.568 14.714 13-4.91 15.706 2.204 18.641 5.153 2.949 2.949 20.374 1.718 28.965-9.82 8.59-11.522 16.938-10.306 25.255-19.381 5.641-6.156 12.027-27.346 15.539-40.328 25.772 49.388 40.338 105.525 40.338 165.082z" fill="url(#aE)"/><path d="m620.066 688.267c10.069 0 18.231-8.296 18.231-18.53s-8.162-18.53-18.231-18.53c-10.068 0-18.23 8.296-18.23 18.53s8.162 18.53 18.23 18.53z" fill="url(#aF)"/><path d="m653.227 669.92c0-18.59-14.839-33.654-33.161-33.654s-33.162 15.079-33.162 33.654c0 5.321 1.217 10.352 3.376 14.821 9.655 23.106 27.977 39.781 29.649 41.271v.106s.015-.015.061-.06c.045.03.061.06.061.06v-.106c1.642-1.459 19.234-17.466 29.026-39.811 2.63-4.819 4.12-10.367 4.12-16.265zm-33.161-14.988c8.15 0 14.764 6.704 14.764 14.988 0 8.285-6.614 14.989-14.764 14.989s-14.764-6.704-14.764-14.989c0-8.284 6.614-14.988 14.764-14.988z" fill="url(#aG)"/><path d="m741.143 674.646c10.068 0 18.23-8.296 18.23-18.53s-8.162-18.53-18.23-18.53c-10.069 0-18.231 8.296-18.231 18.53s8.162 18.53 18.231 18.53z" fill="url(#aH)"/><path d="m774.304 656.299c0-18.59-14.84-33.654-33.162-33.654s-33.162 15.079-33.162 33.654c0 5.321 1.217 10.352 3.376 14.821 9.655 23.106 27.977 39.781 29.649 41.271v.106s.015-.015.061-.061c.046.031.061.061.061.061v-.106c1.642-1.459 19.234-17.466 29.026-39.811 2.63-4.819 4.12-10.367 4.12-16.265zm-33.162-14.973c8.15 0 14.764 6.704 14.764 14.989 0 8.284-6.614 14.988-14.764 14.988s-14.764-6.704-14.764-14.988c0-8.285 6.614-14.989 14.764-14.989z" fill="url(#aI)"/><path d="m572.154 530.224c10.069 0 18.231-8.296 18.231-18.53s-8.162-18.53-18.231-18.53c-10.068 0-18.23 8.296-18.23 18.53s8.162 18.53 18.23 18.53z" fill="url(#aJ)"/><path d="m605.302 511.878c0-18.591-14.84-33.655-33.162-33.655s-33.161 15.079-33.161 33.655c0 5.32 1.216 10.351 3.375 14.82 9.655 23.106 27.977 39.781 29.649 41.271v.106s.015-.015.061-.06c.046.03.061.06.061.06v-.106c1.642-1.459 19.234-17.466 29.026-39.811 2.63-4.819 4.12-10.367 4.12-16.265zm-33.147-14.973c8.15 0 14.764 6.703 14.764 14.988 0 8.284-6.614 14.988-14.764 14.988-8.149 0-14.764-6.704-14.764-14.988 0-8.285 6.615-14.988 14.764-14.988z" fill="url(#aK)"/><path d="m648.773 498.24c10.069 0 18.231-8.297 18.231-18.53 0-10.234-8.162-18.53-18.231-18.53-10.068 0-18.23 8.296-18.23 18.53 0 10.233 8.162 18.53 18.23 18.53z" fill="url(#aL)"/><path d="m681.934 479.893c0-18.591-14.839-33.655-33.161-33.655s-33.162 15.08-33.162 33.655c0 5.321 1.217 10.352 3.376 14.821 9.655 23.106 27.977 39.781 29.649 41.271v.106s.015-.015.061-.061c.046.031.061.061.061.061v-.106c1.642-1.46 19.234-17.466 29.026-39.812 2.63-4.818 4.12-10.367 4.12-16.265zm-33.161-14.988c8.15 0 14.764 6.704 14.764 14.988 0 8.285-6.614 14.988-14.764 14.988s-14.764-6.703-14.764-14.988c0-8.284 6.614-14.988 14.764-14.988z" fill="url(#aM)"/><path d="m107.393 758.283c10.068 0 18.23-8.297 18.23-18.53 0-10.234-8.162-18.53-18.23-18.53-10.0688 0-18.2309 8.296-18.2309 18.53 0 10.233 8.1621 18.53 18.2309 18.53z" fill="url(#aN)"/><path d="m140.554 739.936c0-18.591-14.84-33.655-33.162-33.655-18.3217 0-33.1615 15.08-33.1615 33.655 0 5.32 1.2164 10.352 3.3754 14.821 9.655 23.105 27.9771 39.781 29.6491 41.271v.106s.015-.015.061-.061c.046.031.061.061.061.061v-.106c1.642-1.46 19.234-17.466 29.026-39.812 2.63-4.818 4.12-10.367 4.12-16.265zm-33.162-14.988c8.15 0 14.764 6.704 14.764 14.988 0 8.285-6.614 14.988-14.764 14.988-8.1497 0-14.7638-6.703-14.7638-14.988 0-8.284 6.6141-14.988 14.7638-14.988z" fill="url(#aO)"/><path d="m85.6953 664.689c10.0685 0 18.2307-8.296 18.2307-18.53s-8.1622-18.53-18.2307-18.53c-10.0684 0-18.2305 8.296-18.2305 18.53s8.1621 18.53 18.2305 18.53z" fill="url(#aP)"/><path d="m118.856 646.358c0-18.591-14.839-33.655-33.1612-33.655-18.3218 0-33.1616 15.079-33.1616 33.655 0 5.32 1.2164 10.352 3.3755 14.821 9.655 23.105 27.9767 39.781 29.6492 41.27v.107s.0152-.015.0609-.061c.0456.03.0608.061.0608.061v-.107c1.6421-1.459 19.2344-17.465 29.0254-39.811 2.631-4.818 4.121-10.367 4.121-16.265zm-33.1612-14.988c8.1497 0 14.7642 6.703 14.7642 14.988 0 8.284-6.6145 14.988-14.7642 14.988-8.1498 0-14.7638-6.704-14.7638-14.988 0-8.285 6.614-14.988 14.7638-14.988z" fill="url(#aQ)"/><path d="m204.246 656.283c10.069 0 18.231-8.297 18.231-18.53 0-10.234-8.162-18.53-18.231-18.53-10.068 0-18.23 8.296-18.23 18.53 0 10.233 8.162 18.53 18.23 18.53z" fill="url(#aR)"/><path d="m237.407 637.936c0-18.591-14.84-33.655-33.161-33.655-18.322 0-33.162 15.08-33.162 33.655 0 5.32 1.216 10.352 3.375 14.821 9.655 23.105 27.977 39.781 29.65 41.271v.106s.015-.015.061-.061c.045.031.06.061.06.061v-.106c1.642-1.46 19.234-17.466 29.026-39.812 2.631-4.818 4.121-10.367 4.121-16.265zm-33.161-14.988c8.149 0 14.763 6.704 14.763 14.988 0 8.285-6.614 14.988-14.763 14.988-8.15 0-14.764-6.703-14.764-14.988 0-8.284 6.614-14.988 14.764-14.988z" fill="url(#aS)"/><path d="m259.744 732.029c10.069 0 18.231-8.296 18.231-18.53s-8.162-18.53-18.231-18.53c-10.068 0-18.23 8.296-18.23 18.53s8.162 18.53 18.23 18.53z" fill="url(#aT)"/><path d="m292.905 713.682c0-18.591-14.84-33.655-33.161-33.655-18.322 0-33.162 15.08-33.162 33.655 0 5.321 1.216 10.352 3.375 14.821 9.656 23.106 27.977 39.781 29.65 41.271v.106s.015-.015.061-.061c.045.031.06.061.06.061v-.106c1.643-1.46 19.234-17.466 29.026-39.812 2.631-4.818 4.121-10.367 4.121-16.265zm-33.161-14.988c8.149 0 14.763 6.704 14.763 14.988 0 8.285-6.614 14.988-14.763 14.988-8.15 0-14.764-6.703-14.764-14.988 0-8.284 6.614-14.988 14.764-14.988z" fill="url(#aU)"/><path d="m357.25 828.767c10.068 0 18.231-8.296 18.231-18.53s-8.163-18.53-18.231-18.53-18.23 8.296-18.23 18.53 8.162 18.53 18.23 18.53z" fill="url(#aV)"/><path d="m390.397 810.421c0-18.591-14.839-33.655-33.161-33.655s-33.162 15.079-33.162 33.655c0 5.32 1.217 10.351 3.376 14.82 9.655 23.106 27.976 39.781 29.649 41.271v.106s.015-.015.061-.06c.045.03.061.06.061.06v-.106c1.642-1.459 19.234-17.466 29.025-39.811 2.631-4.819 4.121-10.367 4.121-16.265zm-33.146-14.989c8.15 0 14.764 6.704 14.764 14.989 0 8.284-6.614 14.988-14.764 14.988s-14.764-6.704-14.764-14.988c0-8.285 6.614-14.989 14.764-14.989z" fill="url(#aW)"/><path d="m469.965 923.107c10.068 0 18.23-8.296 18.23-18.53s-8.162-18.53-18.23-18.53c-10.069 0-18.231 8.296-18.231 18.53s8.162 18.53 18.231 18.53z" fill="url(#aX)"/><path d="m503.126 904.76c0-18.59-14.84-33.655-33.162-33.655-18.321 0-33.161 15.08-33.161 33.655 0 5.321 1.216 10.352 3.375 14.821 9.655 23.106 27.977 39.781 29.649 41.271v.106s.016-.015.061-.061c.046.031.061.061.061.061v-.106c1.642-1.46 19.234-17.466 29.026-39.811 2.63-4.819 4.12-10.367 4.12-16.265zm-33.162-14.973c8.15 0 14.764 6.704 14.764 14.989 0 8.284-6.614 14.988-14.764 14.988-8.149 0-14.764-6.704-14.764-14.988 0-8.285 6.615-14.989 14.764-14.989z" fill="url(#aY)"/><g opacity=".66"><path d="m751.099 233.305c-24.526 5.365-46.755 0-59.01-19.154-12.255-19.153-75.112-52.108-101.705-12.267-26.593 39.842 40.156 62.066 40.156 62.066-20.922 6.901-57.246 13.027-105.536-9.197s-156.351-19.928-91.198 45.208c65.152 65.136 184.707 44.447 307.349-27.59 94.102-55.271 140.355-59.998 156.776-59.223-60.165-7.129-123.25 14.988-146.832 20.141z" fill="url(#a0)"/><path d="m897.932 213.164c2.417.289 4.82.608 7.222.988 0 0-2.25-.745-7.222-.988z" fill="url(#a1)"/><path d="m287.871 309.371c-102.891 6.232-137.177 57.064-146.528 85.414-9.351 28.349 20.42 23.683 81.148-14.502 60.712-38.185 131.642-63.89 237.635-38.185 0 0-69.364-38.96-172.255-32.727z" fill="url(#a2)"/></g><g opacity=".66"><path d="m203.941 1055.68c-132.6922-91.347-163.7251-233.992-163.7251-233.992-17.0445 86.842-7.0702 166.845 13.9276 167.742 20.9977.897 20.1007-39.31 20.1007-39.31s11.6468 55.82 78.6538 132.32c67.008 76.51 183.75 64.58 51.043-26.76z" fill="url(#a3)"/><path d="m434.901 1118.52c-65.517 6.32-126.823-19.34-126.823-19.34s37.358 28.99 110.523 48.26c73.166 19.29 138.014-4.65 136.691-23.6-1.323-18.96-54.874-11.65-120.391-5.32z" fill="url(#a4)"/><path d="m735.909 980.962c-59.527 22.258-124.071 92.328-124.071 92.328s58.979-33.38 120.239-33.93c61.26-.56 86.181-22.8 86.181-43.942 0-21.145-22.808-36.71-82.349-14.456z" fill="url(#a5)"/></g><g opacity=".66"><path d="m17.5007 739.754c-9.65505 0-17.5007 7.828-17.5007 17.496s7.83045 17.496 17.5007 17.496c9.6702 0 17.5006-7.828 17.5006-17.496s-7.8304-17.496-17.5006-17.496z" fill="url(#a6)"/><path d="m839.956 697.875c9.665 0 17.5-7.833 17.5-17.496s-7.835-17.496-17.5-17.496c-9.666 0-17.501 7.833-17.501 17.496s7.835 17.496 17.501 17.496z" fill="url(#a7)"/><path d="m1026.15 261.957c-7.02 0-12.71 5.685-12.71 12.708s5.69 12.708 12.71 12.708c7.03 0 12.72-5.685 12.72-12.708s-5.69-12.708-12.72-12.708z" fill="url(#a8)"/><path d="m1034.14 121.318c7.02 0 12.71-5.685 12.71-12.708s-5.69-12.7077-12.71-12.7077c-7.03 0-12.71 5.6847-12.71 12.7077s5.68 12.708 12.71 12.708z" fill="url(#a9)"/><path d="m1211.45 287.373c7.02 0 12.71-5.69 12.71-12.708s-5.69-12.708-12.71-12.708-12.71 5.69-12.71 12.708 5.69 12.708 12.71 12.708z" fill="url(#ba)"/></g></g></svg>
